<?xml version="1.0" standalone="no"?>
<!DOCTYPE svg PUBLIC "-//W3C//DTD SVG 20010904//EN"
 "http://www.w3.org/TR/2001/REC-SVG-20010904/DTD/svg10.dtd">
<svg version="1.0" xmlns="http://www.w3.org/2000/svg"
 width="700.000000pt" height="700.000000pt" viewBox="0 0 700.000000 700.000000"
 preserveAspectRatio="xMidYMid meet">
<metadata>
Created by potrace 1.11, written by Peter Selinger 2001-2013
</metadata>
<g transform="translate(0.000000,700.000000) scale(0.100000,-0.100000)"
fill="#000000" stroke="none">
<path d="M3188 6705 c-2 -2 -41 -6 -87 -9 -46 -4 -87 -8 -90 -10 -3 -2 -31 -7
-62 -10 -236 -27 -559 -157 -752 -302 -268 -202 -459 -498 -547 -849 -44 -174
-47 -219 -48 -690 0 -242 -1 -445 -1 -450 -1 -6 -15 -12 -32 -13 -17 -1 -47
-11 -67 -21 -131 -68 -201 -266 -196 -554 1 -73 4 -142 7 -155 41 -166 79
-260 153 -383 26 -43 68 -101 92 -129 l44 -50 2 -462 c3 -443 4 -466 24 -520
34 -94 105 -182 209 -261 23 -18 46 -41 51 -52 13 -29 7 -411 -8 -465 -18 -66
-65 -150 -113 -199 -23 -24 -100 -82 -172 -129 -108 -71 -184 -124 -250 -175
-146 -111 -324 -256 -355 -287 -3 -3 -40 -37 -84 -75 -43 -38 -101 -91 -128
-117 l-50 -48 2621 0 c1441 0 2621 2 2621 5 0 5 -30 34 -150 145 -47 44 -116
104 -165 145 -27 22 -53 45 -59 50 -41 40 -291 226 -438 326 -198 134 -254
185 -293 265 -43 87 -46 109 -50 336 l-5 217 42 38 c165 148 199 191 233 293
17 50 19 96 21 517 l1 461 45 59 c186 242 260 481 237 768 -11 135 -25 198
-64 290 -37 86 -129 165 -193 165 -16 0 -22 6 -23 23 0 12 -1 207 -1 432 0
226 -4 448 -10 495 -48 405 -248 781 -543 1019 -229 185 -538 309 -865 347
-30 3 -64 8 -75 11 -22 5 -422 12 -427 8z"/>
</g>
</svg>
